<?xml version="1.0" standalone="no"?>
<!DOCTYPE svg PUBLIC "-//W3C//DTD SVG 1.1//EN"
"http://www.w3.org/Graphics/SVG/1.1/DTD/svg11.dtd">
<svg width="800" height="600" version="1.1" xmlns="http://www.w3.org/2000/svg">
<circle cx="0" cy="437" r="27.459060" fill="rgb(0,0,255)" stroke="rgb(0,0,255)" stroke-width="1" />
<rect x="0" y="333" width="923" height="271" fill="rgb(0,0,255)" stroke="rgb(0,0,255)" storke-width="1" />
<circle cx="404" cy="269" r="4.242641" fill="rgb(255,0,0)" stroke="rgb(0,0,255)" stroke-width="1" />
<circle cx="397" cy="292" r="5.000000" fill="rgb(255,0,0)" stroke="rgb(255,0,0)" stroke-width="1" />
<circle cx="395" cy="320" r="159.380049" fill="rgb(255,0,0)" stroke="rgb(255,0,0)" stroke-width="1" />
<rect x="0" y="332" width="801" height="255" fill="rgb(0,0,255)" stroke="rgb(0,0,255)" storke-width="1" />
<rect x="280" y="342" width="244" height="0" fill="rgb(255,255,255)" stroke="rgb(255,255,255)" storke-width="1" />
<rect x="292" y="348" width="214" height="1" fill="rgb(255,255,255)" stroke="rgb(255,255,255)" storke-width="1" />
<rect x="302" y="357" width="195" height="2" fill="rgb(255,255,255)" stroke="rgb(255,255,255)" storke-width="1" />
<rect x="323" y="367" width="160" height="3" fill="rgb(255,255,255)" stroke="rgb(255,255,255)" storke-width="1" />
<rect x="338" y="381" width="80" height="4" fill="rgb(255,255,255)" stroke="rgb(255,255,255)" storke-width="1" />
<rect x="433" y="381" width="41" height="1" fill="rgb(255,255,255)" stroke="rgb(255,255,255)" storke-width="1" />
<rect x="353" y="401" width="45" height="1" fill="rgb(255,255,255)" stroke="rgb(255,255,255)" storke-width="1" />
<rect x="424" y="402" width="47" height="0" fill="rgb(255,255,255)" stroke="rgb(255,255,255)" storke-width="1" />
<rect x="362" y="416" width="87" height="2" fill="rgb(255,255,255)" stroke="rgb(255,255,255)" storke-width="1" />
<rect x="385" y="428" width="65" height="0" fill="rgb(255,255,255)" stroke="rgb(255,255,255)" storke-width="1" />
<rect x="396" y="436" width="53" height="0" fill="rgb(255,255,255)" stroke="rgb(255,255,255)" storke-width="1" />
<rect x="0" y="1" width="802" height="330" fill="rgb(0,0,0)" stroke="rgb(0,0,0)" storke-width="1" />
<circle cx="405" cy="303" r="154.547727" fill="rgb(255,255,255)" stroke="rgb(255,255,255)" stroke-width="1" />
<rect x="0" y="330" width="812" height="259" fill="rgb(0,0,255)" stroke="rgb(0,0,255)" storke-width="1" />
<rect x="317" y="345" width="220" height="5" fill="rgb(255,255,255)" stroke="rgb(0,0,255)" storke-width="1" />
<rect x="288" y="362" width="252" height="3" fill="rgb(255,255,255)" stroke="rgb(0,0,255)" storke-width="1" />
<rect x="295" y="374" width="238" height="4" fill="rgb(255,255,255)" stroke="rgb(0,0,255)" storke-width="1" />
<rect x="308" y="386" width="217" height="2" fill="rgb(255,255,255)" stroke="rgb(0,0,255)" storke-width="1" />
<rect x="316" y="396" width="196" height="2" fill="rgb(255,255,255)" stroke="rgb(0,0,255)" storke-width="1" />
<rect x="324" y="406" width="182" height="2" fill="rgb(255,255,255)" stroke="rgb(0,0,255)" storke-width="1" />
<rect x="346" y="416" width="153" height="2" fill="rgb(255,255,255)" stroke="rgb(0,0,255)" storke-width="1" />
<rect x="371" y="428" width="115" height="3" fill="rgb(255,255,255)" stroke="rgb(0,0,255)" storke-width="1" />
<rect x="388" y="436" width="87" height="3" fill="rgb(255,255,255)" stroke="rgb(0,0,255)" storke-width="1" />
<rect x="423" y="443" width="16" height="2" fill="rgb(255,255,255)" stroke="rgb(0,0,255)" storke-width="1" />
<rect x="429" y="446" width="8" height="3" fill="rgb(255,255,255)" stroke="rgb(0,0,255)" storke-width="1" />
<circle cx="88" cy="94" r="3.605551" fill="rgb(255,255,255)" stroke="rgb(0,0,255)" stroke-width="1" />
<circle cx="482" cy="82" r="2.000000" fill="rgb(255,255,255)" stroke="rgb(0,255,0)" stroke-width="1" />
<circle cx="660" cy="43" r="8.062258" fill="rgb(255,255,255)" stroke="rgb(0,255,0)" stroke-width="1" />
<rect x="249" y="33" width="7" height="3" fill="rgb(255,255,255)" stroke="rgb(0,255,0)" storke-width="1" />
<rect x="74" y="169" width="3" height="4" fill="rgb(255,255,255)" stroke="rgb(0,255,0)" storke-width="1" />
<rect x="140" y="193" width="4" height="5" fill="rgb(255,255,255)" stroke="rgb(0,255,0)" storke-width="1" />
<rect x="637" y="151" width="0" height="0" fill="rgb(255,255,255)" stroke="rgb(0,255,0)" storke-width="1" />
<rect x="643" y="156" width="4" height="2" fill="rgb(255,255,255)" stroke="rgb(0,255,0)" storke-width="1" />
<rect x="711" y="185" width="5" height="6" fill="rgb(255,255,255)" stroke="rgb(0,255,0)" storke-width="1" />
<rect x="749" y="141" width="0" height="0" fill="rgb(255,255,255)" stroke="rgb(0,255,0)" storke-width="1" />
<rect x="729" y="119" width="2" height="2" fill="rgb(255,255,255)" stroke="rgb(0,255,0)" storke-width="1" />
<rect x="690" y="106" width="11" height="2" fill="rgb(255,255,255)" stroke="rgb(0,255,0)" storke-width="1" />
<rect x="626" y="103" width="8" height="1" fill="rgb(255,255,255)" stroke="rgb(0,255,0)" storke-width="1" />
<rect x="586" y="71" width="5" height="4" fill="rgb(255,255,255)" stroke="rgb(0,255,0)" storke-width="1" />
<rect x="549" y="49" width="12" height="0" fill="rgb(255,255,255)" stroke="rgb(0,255,0)" storke-width="1" />
<rect x="316" y="95" width="0" height="4" fill="rgb(255,255,255)" stroke="rgb(0,255,0)" storke-width="1" />
<rect x="272" y="118" width="8" height="6" fill="rgb(255,255,255)" stroke="rgb(0,255,0)" storke-width="1" />
<rect x="245" y="142" width="1" height="0" fill="rgb(255,255,255)" stroke="rgb(0,255,0)" storke-width="1" />
<rect x="163" y="221" width="1" height="2" fill="rgb(255,255,255)" stroke="rgb(0,255,0)" storke-width="1" />
<rect x="162" y="262" width="0" height="0" fill="rgb(255,255,255)" stroke="rgb(0,255,0)" storke-width="1" />
<rect x="105" y="258" width="3" height="10" fill="rgb(255,255,255)" stroke="rgb(0,255,0)" storke-width="1" />
<rect x="93" y="232" width="3" height="9" fill="rgb(255,255,255)" stroke="rgb(0,255,0)" storke-width="1" />
<rect x="77" y="193" width="0" height="10" fill="rgb(255,255,255)" stroke="rgb(0,255,0)" storke-width="1" />
<rect x="90" y="118" width="18" height="14" fill="rgb(255,255,255)" stroke="rgb(0,255,0)" storke-width="1" />
<rect x="145" y="78" width="5" height="1" fill="rgb(255,255,255)" stroke="rgb(0,255,0)" storke-width="1" />
<rect x="565" y="83" width="0" height="0" fill="rgb(255,255,255)" stroke="rgb(0,255,0)" storke-width="1" />
<rect x="644" y="175" width="2" height="3" fill="rgb(255,255,255)" stroke="rgb(0,255,0)" storke-width="1" />
<rect x="683" y="229" width="8" height="7" fill="rgb(255,255,255)" stroke="rgb(0,255,0)" storke-width="1" />
<rect x="730" y="259" width="2" height="1" fill="rgb(255,255,255)" stroke="rgb(0,255,0)" storke-width="1" />
<rect x="772" y="262" width="0" height="2" fill="rgb(255,255,255)" stroke="rgb(0,255,0)" storke-width="1" />
<rect x="781" y="196" width="0" height="0" fill="rgb(255,255,255)" stroke="rgb(0,255,0)" storke-width="1" />
<rect x="745" y="165" width="0" height="1" fill="rgb(255,255,255)" stroke="rgb(0,255,0)" storke-width="1" />
<rect x="742" y="106" width="2" height="7" fill="rgb(255,255,255)" stroke="rgb(0,255,0)" storke-width="1" />
<rect x="763" y="73" width="2" height="2" fill="rgb(255,255,255)" stroke="rgb(0,255,0)" storke-width="1" />
<rect x="766" y="44" width="0" height="1" fill="rgb(255,255,255)" stroke="rgb(0,255,0)" storke-width="1" />
<rect x="739" y="15" width="0" height="0" fill="rgb(255,255,255)" stroke="rgb(0,255,0)" storke-width="1" />
<rect x="596" y="9" width="0" height="0" fill="rgb(255,255,255)" stroke="rgb(0,255,0)" storke-width="1" />
<rect x="487" y="36" width="15" height="6" fill="rgb(255,255,255)" stroke="rgb(0,255,0)" storke-width="1" />
<rect x="447" y="44" width="5" height="2" fill="rgb(255,255,255)" stroke="rgb(0,255,0)" storke-width="1" />
<rect x="378" y="34" width="0" height="0" fill="rgb(255,255,255)" stroke="rgb(0,255,0)" storke-width="1" />
<rect x="360" y="16" width="0" height="1" fill="rgb(255,255,255)" stroke="rgb(0,255,0)" storke-width="1" />
<rect x="280" y="22" width="0" height="0" fill="rgb(255,255,255)" stroke="rgb(0,255,0)" storke-width="1" />
<rect x="246" y="50" width="4" height="6" fill="rgb(255,255,255)" stroke="rgb(0,255,0)" storke-width="1" />
<rect x="222" y="72" width="1" height="1" fill="rgb(255,255,255)" stroke="rgb(0,255,0)" storke-width="1" />
<rect x="191" y="102" width="2" height="5" fill="rgb(255,255,255)" stroke="rgb(0,255,0)" storke-width="1" />
<rect x="185" y="131" width="2" height="14" fill="rgb(255,255,255)" stroke="rgb(0,255,0)" storke-width="1" />
<rect x="183" y="159" width="1" height="17" fill="rgb(255,255,255)" stroke="rgb(0,255,0)" storke-width="1" />
<rect x="136" y="271" width="0" height="0" fill="rgb(255,255,255)" stroke="rgb(0,255,0)" storke-width="1" />
<rect x="180" y="290" width="0" height="0" fill="rgb(255,255,255)" stroke="rgb(0,255,0)" storke-width="1" />
<rect x="199" y="286" width="0" height="1" fill="rgb(255,255,255)" stroke="rgb(0,255,0)" storke-width="1" />
<rect x="217" y="276" width="0" height="0" fill="rgb(255,255,255)" stroke="rgb(0,255,0)" storke-width="1" />
<rect x="142" y="289" width="0" height="0" fill="rgb(255,255,255)" stroke="rgb(0,255,0)" storke-width="1" />
<rect x="115" y="286" width="1" height="0" fill="rgb(255,255,255)" stroke="rgb(0,255,0)" storke-width="1" />
<rect x="76" y="269" width="1" height="0" fill="rgb(255,255,255)" stroke="rgb(0,255,0)" storke-width="1" />
<rect x="34" y="309" width="0" height="1" fill="rgb(255,255,255)" stroke="rgb(0,255,0)" storke-width="1" />
<rect x="36" y="313" width="6" height="0" fill="rgb(255,255,255)" stroke="rgb(0,255,0)" storke-width="1" />
<rect x="109" y="321" width="0" height="0" fill="rgb(255,255,255)" stroke="rgb(0,255,0)" storke-width="1" />
<rect x="126" y="318" width="1" height="2" fill="rgb(255,255,255)" stroke="rgb(0,255,0)" storke-width="1" />
<rect x="151" y="306" width="1" height="1" fill="rgb(255,255,255)" stroke="rgb(0,255,0)" storke-width="1" />
<rect x="148" y="288" width="1" height="0" fill="rgb(255,255,255)" stroke="rgb(0,255,0)" storke-width="1" />
<rect x="57" y="267" width="0" height="2" fill="rgb(255,255,255)" stroke="rgb(0,255,0)" storke-width="1" />
<rect x="44" y="217" width="1" height="11" fill="rgb(255,255,255)" stroke="rgb(0,255,0)" storke-width="1" />
<rect x="46" y="152" width="2" height="6" fill="rgb(255,255,255)" stroke="rgb(0,255,0)" storke-width="1" />
<rect x="50" y="74" width="1" height="8" fill="rgb(255,255,255)" stroke="rgb(0,255,0)" storke-width="1" />
<rect x="64" y="50" width="4" height="3" fill="rgb(255,255,255)" stroke="rgb(0,255,0)" storke-width="1" />
<rect x="100" y="35" width="5" height="2" fill="rgb(255,255,255)" stroke="rgb(0,255,0)" storke-width="1" />
<rect x="172" y="28" width="0" height="0" fill="rgb(255,255,255)" stroke="rgb(0,255,0)" storke-width="1" />
<rect x="383" y="33" width="0" height="0" fill="rgb(255,255,255)" stroke="rgb(0,255,0)" storke-width="1" />
<rect x="535" y="51" width="2" height="2" fill="rgb(255,255,255)" stroke="rgb(0,255,0)" storke-width="1" />
<rect x="633" y="123" width="6" height="13" fill="rgb(255,255,255)" stroke="rgb(0,255,0)" storke-width="1" />
<rect x="614" y="197" width="1" height="5" fill="rgb(255,255,255)" stroke="rgb(0,255,0)" storke-width="1" />
<rect x="609" y="256" width="4" height="5" fill="rgb(255,255,255)" stroke="rgb(0,255,0)" storke-width="1" />
<rect x="658" y="281" width="4" height="2" fill="rgb(255,255,255)" stroke="rgb(0,255,0)" storke-width="1" />
<rect x="696" y="289" width="22" height="13" fill="rgb(255,255,255)" stroke="rgb(0,255,0)" storke-width="1" />
<rect x="786" y="309" width="1" height="2" fill="rgb(255,255,255)" stroke="rgb(0,255,0)" storke-width="1" />
<rect x="774" y="214" width="0" height="2" fill="rgb(255,255,255)" stroke="rgb(0,255,0)" storke-width="1" />
<rect x="762" y="147" width="0" height="12" fill="rgb(255,255,255)" stroke="rgb(0,255,0)" storke-width="1" />
<rect x="764" y="100" width="1" height="4" fill="rgb(255,255,255)" stroke="rgb(0,255,0)" storke-width="1" />
<rect x="776" y="25" width="0" height="0" fill="rgb(255,255,255)" stroke="rgb(0,255,0)" storke-width="1" />
<rect x="565" y="98" width="0" height="2" fill="rgb(255,255,255)" stroke="rgb(0,255,0)" storke-width="1" />
<rect x="540" y="139" width="0" height="0" fill="rgb(255,255,255)" stroke="rgb(0,255,0)" storke-width="1" />
<rect x="551" y="152" width="0" height="0" fill="rgb(255,255,255)" stroke="rgb(0,255,0)" storke-width="1" />
<rect x="569" y="152" width="0" height="0" fill="rgb(255,255,255)" stroke="rgb(0,255,0)" storke-width="1" />
<rect x="589" y="154" width="0" height="0" fill="rgb(255,255,255)" stroke="rgb(0,255,0)" storke-width="1" />
<rect x="592" y="164" width="0" height="7" fill="rgb(255,255,255)" stroke="rgb(0,255,0)" storke-width="1" />
<rect x="585" y="175" width="8" height="0" fill="rgb(255,255,255)" stroke="rgb(0,255,0)" storke-width="1" />
<rect x="565" y="171" width="3" height="4" fill="rgb(255,255,255)" stroke="rgb(0,255,0)" storke-width="1" />
<rect x="533" y="139" width="1" height="2" fill="rgb(255,255,255)" stroke="rgb(0,255,0)" storke-width="1" />
<rect x="506" y="108" width="14" height="9" fill="rgb(255,255,255)" stroke="rgb(0,255,0)" storke-width="1" />
<rect x="373" y="101" width="88" height="4" fill="rgb(255,255,255)" stroke="rgb(0,255,0)" storke-width="1" />
<rect x="274" y="96" width="33" height="7" fill="rgb(255,255,255)" stroke="rgb(0,255,0)" storke-width="1" />
<rect x="194" y="138" width="25" height="44" fill="rgb(255,255,255)" stroke="rgb(0,255,0)" storke-width="1" />
<rect x="164" y="227" width="10" height="22" fill="rgb(255,255,255)" stroke="rgb(0,255,0)" storke-width="1" />
<rect x="101" y="242" width="18" height="28" fill="rgb(255,255,255)" stroke="rgb(0,255,0)" storke-width="1" />
<rect x="66" y="64" width="4" height="51" fill="rgb(255,255,255)" stroke="rgb(0,255,0)" storke-width="1" />
<rect x="254" y="35" width="17" height="0" fill="rgb(255,255,255)" stroke="rgb(0,255,0)" storke-width="1" />
<rect x="431" y="30" width="49" height="5" fill="rgb(255,255,255)" stroke="rgb(0,255,0)" storke-width="1" />
<rect x="549" y="36" width="30" height="6" fill="rgb(255,255,255)" stroke="rgb(0,255,0)" storke-width="1" />
<rect x="680" y="58" width="17" height="16" fill="rgb(255,255,255)" stroke="rgb(0,255,0)" storke-width="1" />
<rect x="617" y="271" width="0" height="1" fill="rgb(255,255,255)" stroke="rgb(0,255,0)" storke-width="1" />
<rect x="592" y="288" width="0" height="0" fill="rgb(255,255,255)" stroke="rgb(0,255,0)" storke-width="1" />
<circle cx="340" cy="246" r="1.414214" fill="rgb(255,255,255)" stroke="rgb(0,0,0)" stroke-width="1" />
<circle cx="450" cy="209" r="4.242641" fill="rgb(255,255,255)" stroke="rgb(0,0,0)" stroke-width="1" />
<circle cx="495" cy="277" r="2.236068" fill="rgb(255,255,255)" stroke="rgb(0,0,0)" stroke-width="1" />
<circle cx="342" cy="254" r="57.697487" fill="rgb(255,255,255)" stroke="rgb(0,0,0)" stroke-width="1" />
<circle cx="412" cy="259" r="49.739320" fill="rgb(255,255,255)" stroke="rgb(0,0,0)" stroke-width="1" />
<circle cx="403" cy="199" r="49.091751" fill="rgb(255,255,255)" stroke="rgb(0,0,0)" stroke-width="1" />
<circle cx="459" cy="229" r="57.280014" fill="rgb(255,255,255)" stroke="rgb(0,0,0)" stroke-width="1" />
<circle cx="499" cy="278" r="53.037722" fill="rgb(255,255,255)" stroke="rgb(0,0,0)" stroke-width="1" />
<circle cx="324" cy="286" r="44.147480" fill="rgb(255,255,255)" stroke="rgb(0,0,0)" stroke-width="1" />
<circle cx="400" cy="273" r="52.325902" fill="rgb(255,255,255)" stroke="rgb(0,0,0)" stroke-width="1" />
<circle cx="459" cy="269" r="41.109610" fill="rgb(255,255,255)" stroke="rgb(0,0,0)" stroke-width="1" />
<circle cx="307" cy="258" r="39.217343" fill="rgb(255,255,255)" stroke="rgb(0,0,0)" stroke-width="1" />
<circle cx="347" cy="200" r="31.827661" fill="rgb(255,255,255)" stroke="rgb(0,0,0)" stroke-width="1" />
<circle cx="373" cy="184" r="24.041631" fill="rgb(255,255,255)" stroke="rgb(0,0,0)" stroke-width="1" />
</svg>
